<svg width="1180" height="324" viewBox="0 0 1180 324" fill="none" xmlns="http://www.w3.org/2000/svg">
<g clip-path="url(#clip0_54_238)">
<path d="M220.228 162.444C220.228 162.444 220.219 162.086 220.201 161.393C220.169 160.701 220.194 159.67 220.066 158.333C219.89 155.662 219.454 151.724 218.106 146.896C217.934 146.294 217.757 145.677 217.575 145.043C217.363 144.419 217.147 143.779 216.925 143.124C216.717 142.464 216.445 141.81 216.181 141.137C215.91 140.466 215.659 139.77 215.334 139.089C214.141 136.317 212.594 133.429 210.679 130.516C206.858 124.7 201.447 118.774 194.304 113.995C190.733 111.619 186.75 109.536 182.425 107.9C178.103 106.254 173.416 105.146 168.538 104.575C167.93 104.484 167.315 104.453 166.699 104.404C166.084 104.359 165.466 104.314 164.845 104.269C164.222 104.253 163.596 104.238 162.968 104.222L162.025 104.199C161.719 104.199 161.398 104.213 161.085 104.219C160.455 104.235 159.824 104.252 159.19 104.268C158.556 104.292 157.923 104.359 157.287 104.402C156.012 104.471 154.743 104.666 153.463 104.824C150.918 105.226 148.353 105.725 145.831 106.483C144.556 106.815 143.318 107.282 142.057 107.698C141.434 107.929 140.819 108.183 140.197 108.425L139.266 108.794L138.352 109.209C133.45 111.373 128.787 114.29 124.558 117.828C122.438 119.591 120.467 121.553 118.59 123.612C116.722 125.684 115.032 127.925 113.457 130.254C111.89 132.592 110.531 135.074 109.302 137.624C108.08 140.181 107.096 142.852 106.25 145.568C105.415 148.29 104.833 151.087 104.391 153.906C103.976 156.732 103.802 159.58 103.767 162.444C103.803 165.299 103.977 168.156 104.391 170.981C104.834 173.799 105.415 176.597 106.251 179.319C107.097 182.034 108.081 184.706 109.302 187.262C110.531 189.812 111.89 192.295 113.457 194.633C115.032 196.962 116.723 199.203 118.59 201.274C120.468 203.334 122.438 205.295 124.559 207.059C128.787 210.597 133.45 213.514 138.352 215.679L139.266 216.093L140.197 216.461C140.819 216.703 141.434 216.957 142.057 217.188C143.318 217.605 144.556 218.071 145.831 218.403C148.353 219.162 150.918 219.661 153.463 220.063C154.743 220.22 156.013 220.415 157.285 220.484C157.921 220.528 158.551 220.595 159.186 220.618C159.822 220.634 160.455 220.651 161.087 220.668C161.401 220.674 161.722 220.688 162.029 220.688L162.97 220.664C163.596 220.649 164.22 220.634 164.842 220.617C165.463 220.573 166.081 220.527 166.698 220.482C167.314 220.435 167.93 220.402 168.538 220.311C173.416 219.74 178.103 218.632 182.425 216.987C186.75 215.351 190.733 213.267 194.304 210.892C201.447 206.113 206.858 200.186 210.679 194.371C212.593 191.457 214.141 188.57 215.334 185.798C215.659 185.117 215.91 184.421 216.18 183.75C216.445 183.077 216.716 182.423 216.925 181.762C217.147 181.108 217.363 180.469 217.575 179.844C217.757 179.211 217.934 178.593 218.106 177.991C219.454 173.164 219.89 169.224 220.066 166.555C220.194 165.222 220.17 164.186 220.201 163.493C220.219 162.799 220.228 162.441 220.228 162.441V162.444ZM220.452 162.446C220.452 162.446 220.444 162.805 220.428 163.499C220.399 164.193 220.428 165.223 220.304 166.568C220.138 169.255 219.714 173.209 218.378 178.066C218.208 178.672 218.032 179.293 217.852 179.93C217.641 180.559 217.426 181.202 217.205 181.862C216.998 182.526 216.729 183.184 216.465 183.862C216.196 184.537 215.946 185.238 215.62 185.924C214.429 188.713 212.916 191.64 211.013 194.59C207.226 200.49 201.816 206.492 194.683 211.458C191.109 213.918 187.106 216.095 182.74 217.826C178.377 219.566 173.628 220.771 168.664 221.43C168.046 221.532 167.419 221.576 166.791 221.635C166.163 221.691 165.532 221.746 164.9 221.802C164.265 221.828 163.629 221.854 162.991 221.88L162.031 221.918L161.884 221.921L161.766 221.92L161.529 221.918L161.056 221.913C160.424 221.907 159.789 221.901 159.154 221.894C158.514 221.881 157.851 221.824 157.197 221.789C155.874 221.737 154.58 221.559 153.266 221.418C150.655 221.048 148.017 220.577 145.419 219.84C144.105 219.519 142.826 219.062 141.524 218.653C140.882 218.426 140.245 218.176 139.603 217.936L138.64 217.573L137.693 217.162C132.619 215.015 127.768 212.088 123.347 208.504C122.803 208.044 122.259 207.584 121.713 207.123C121.176 206.653 120.665 206.152 120.139 205.666L119.358 204.928L118.607 204.156C118.114 203.634 117.591 203.137 117.119 202.593C115.169 200.47 113.397 198.168 111.743 195.773C105.149 186.155 101.556 174.301 101.537 162.444C101.564 150.587 105.149 138.731 111.75 129.119C113.403 126.723 115.176 124.423 117.126 122.299C117.598 121.755 118.12 121.258 118.613 120.737L119.364 119.965L120.145 119.227C120.671 118.741 121.182 118.239 121.719 117.77C122.265 117.31 122.81 116.852 123.355 116.394C127.775 112.81 132.625 109.882 137.698 107.736L138.644 107.325L139.607 106.961C140.249 106.721 140.886 106.471 141.528 106.244C142.83 105.835 144.109 105.378 145.422 105.057C148.02 104.32 150.656 103.849 153.268 103.479C154.58 103.338 155.88 103.159 157.184 103.108C157.836 103.074 158.483 103.017 159.131 103.002C159.778 102.996 160.424 102.989 161.067 102.982C161.4 102.981 161.685 102.971 162.056 102.978L162.998 103.016C163.626 103.042 164.252 103.067 164.876 103.092C165.513 103.148 166.148 103.204 166.78 103.26C167.413 103.319 168.047 103.364 168.663 103.465C173.626 104.124 178.375 105.328 182.738 107.068C187.103 108.798 191.105 110.973 194.68 113.433C201.813 118.398 207.225 124.398 211.011 130.298C212.915 133.248 214.427 136.175 215.62 138.964C215.945 139.649 216.195 140.35 216.464 141.025C216.728 141.703 216.998 142.361 217.205 143.025C217.426 143.685 217.641 144.329 217.851 144.957C218.032 145.594 218.207 146.216 218.378 146.821C219.714 151.677 220.138 155.634 220.304 158.317C220.428 159.659 220.399 160.694 220.428 161.389C220.444 162.084 220.452 162.444 220.452 162.444V162.446Z" fill="white"/>
<path d="M161.501 228.522C161.501 228.522 161.908 228.512 162.699 228.491C163.489 228.455 164.665 228.483 166.189 228.336C169.236 228.137 173.728 227.639 179.235 226.101C179.922 225.904 180.626 225.702 181.349 225.495C182.061 225.253 182.791 225.007 183.538 224.753C184.291 224.516 185.037 224.206 185.805 223.904C186.57 223.595 187.364 223.31 188.141 222.937C191.303 221.576 194.597 219.811 197.921 217.626C204.555 213.265 211.316 207.091 216.768 198.938C219.479 194.862 221.856 190.316 223.723 185.38C225.6 180.447 226.864 175.097 227.516 169.53C227.62 168.836 227.656 168.134 227.712 167.431C227.763 166.728 227.815 166.022 227.866 165.315C227.884 164.603 227.902 163.888 227.92 163.172L227.946 162.096C227.947 161.745 227.93 161.381 227.923 161.023C227.905 160.304 227.886 159.582 227.867 158.859C227.84 158.136 227.764 157.413 227.715 156.687C227.637 155.233 227.413 153.784 227.234 152.323C226.776 149.418 226.207 146.49 225.341 143.611C224.963 142.156 224.431 140.742 223.956 139.303C223.692 138.592 223.403 137.889 223.127 137.18L222.706 136.117L222.233 135.074C219.765 129.478 216.437 124.155 212.401 119.328C210.389 116.907 208.151 114.658 205.802 112.515C203.439 110.383 200.882 108.452 198.226 106.654C195.559 104.866 192.727 103.314 189.817 101.911C186.901 100.517 183.852 99.3937 180.755 98.4268C177.649 97.473 174.457 96.8094 171.241 96.3034C168.015 95.8299 164.773 95.6311 161.495 95.5905C158.248 95.6321 154.981 95.8299 151.76 96.3039C148.545 96.8099 145.353 97.473 142.247 98.4268C139.15 99.3941 136.102 100.517 133.185 101.911C130.276 103.314 127.443 104.866 124.776 106.654C122.12 108.452 119.563 110.383 117.199 112.515C114.85 114.658 112.613 116.907 110.601 119.328C106.565 124.155 103.237 129.478 100.768 135.073L100.296 136.117L99.8753 137.18C99.5997 137.889 99.3096 138.592 99.046 139.302C98.5707 140.742 98.0393 142.156 97.6607 143.611C96.7951 146.489 96.226 149.417 95.7676 152.323C95.5887 153.784 95.3653 155.233 95.2869 156.685C95.2376 157.411 95.1617 158.131 95.1351 158.855C95.1158 159.58 95.0974 160.303 95.079 161.024C95.0718 161.383 95.0548 161.749 95.0558 162.099L95.0824 163.173C95.1003 163.888 95.1177 164.6 95.1356 165.311C95.1868 166.019 95.2386 166.725 95.2898 167.429C95.3454 168.132 95.3822 168.836 95.4857 169.529C96.137 175.097 97.402 180.447 99.2791 185.379C101.146 190.316 103.523 194.862 106.233 198.937C111.685 207.09 118.447 213.265 125.08 217.625C128.404 219.811 131.698 221.577 134.86 222.937C135.637 223.31 136.431 223.595 137.197 223.903C137.964 224.206 138.711 224.516 139.463 224.753C140.21 225.006 140.94 225.253 141.653 225.495C142.375 225.702 143.08 225.904 143.766 226.101C149.272 227.639 153.767 228.137 156.811 228.336C158.333 228.483 159.513 228.455 160.303 228.491C161.095 228.512 161.503 228.522 161.503 228.522H161.501ZM161.498 228.745C161.498 228.745 161.089 228.736 160.298 228.718C159.506 228.684 158.331 228.717 156.798 228.575C153.735 228.384 149.227 227.9 143.691 226.374C143.001 226.178 142.292 225.978 141.566 225.772C140.85 225.532 140.116 225.286 139.365 225.033C138.608 224.797 137.857 224.489 137.084 224.188C136.315 223.881 135.516 223.596 134.734 223.224C131.555 221.865 128.221 220.133 124.862 217.959C118.143 213.634 111.306 207.459 105.667 199.316C102.872 195.238 100.402 190.672 98.4406 185.695C96.4687 180.721 95.1071 175.309 94.3667 169.655C94.2526 168.951 94.2043 168.237 94.138 167.522C94.0766 166.807 94.0046 166.09 93.9514 165.369C93.9233 164.646 93.8953 163.921 93.8672 163.194L93.8257 162.101L93.8223 161.938L93.8237 161.803L93.8266 161.533L93.8334 160.993C93.8421 160.272 93.8503 159.548 93.859 158.823C93.8759 158.094 93.9427 157.34 93.9828 156.597C94.0447 155.094 94.2497 153.62 94.4132 152.125C94.8392 149.154 95.3807 146.153 96.2245 143.198C96.592 141.705 97.1143 140.25 97.5814 138.77C97.841 138.039 98.1273 137.316 98.4005 136.585L98.8168 135.491L99.2854 134.415C101.737 128.647 105.074 123.136 109.157 118.116C109.68 117.499 110.203 116.881 110.728 116.261C111.263 115.651 111.833 115.071 112.386 114.473L113.225 113.585L114.104 112.734C114.697 112.172 115.263 111.579 115.881 111.044C118.296 108.828 120.913 106.817 123.637 104.94L125.718 103.583C126.417 103.138 127.145 102.736 127.858 102.311C128.218 102.104 128.573 101.887 128.937 101.686L130.042 101.108C130.786 100.733 131.508 100.312 132.272 99.9784C135.279 98.5298 138.422 97.3583 141.619 96.3504C144.824 95.3549 148.119 94.6575 151.44 94.1254L153.943 93.8004C154.776 93.68 155.619 93.6524 156.457 93.574C157.295 93.5053 158.135 93.4342 158.977 93.427L161.552 93.3607L164.003 93.4299C164.417 93.4473 164.81 93.44 165.239 93.4773L166.517 93.576L167.793 93.6761C168.22 93.7066 168.644 93.7423 169.058 93.8038L171.561 94.1288C174.881 94.6609 178.177 95.3588 181.382 96.3532C184.578 97.3622 187.723 98.5313 190.727 99.9828C193.719 101.455 196.626 103.082 199.36 104.948C202.084 106.824 204.7 108.836 207.114 111.05C207.733 111.586 208.299 112.179 208.892 112.74L209.771 113.592L210.61 114.479C211.163 115.077 211.733 115.656 212.268 116.267C212.791 116.887 213.313 117.506 213.835 118.125C217.917 123.144 221.255 128.653 223.706 134.42L224.174 135.495L224.59 136.59C224.864 137.32 225.15 138.043 225.41 138.774C225.877 140.254 226.399 141.708 226.767 143.201C227.611 146.156 228.152 149.156 228.579 152.127C228.742 153.621 228.948 155.101 229.008 156.585C229.049 157.325 229.115 158.063 229.133 158.8C229.141 159.537 229.151 160.272 229.159 161.005C229.161 161.383 229.174 161.711 229.167 162.126L229.126 163.203C229.098 163.919 229.07 164.633 229.042 165.344C228.99 166.066 228.918 166.793 228.856 167.512C228.789 168.232 228.741 168.952 228.626 169.655C227.887 175.307 226.526 180.719 224.555 185.692C222.593 190.669 220.125 195.235 217.33 199.314C211.691 207.456 204.858 213.633 198.138 217.958C194.779 220.132 191.445 221.863 188.267 223.224C187.485 223.595 186.686 223.881 185.917 224.188C185.144 224.488 184.393 224.797 183.637 225.033C182.885 225.285 182.152 225.532 181.435 225.771C180.709 225.977 180 226.178 179.31 226.373C173.775 227.899 169.264 228.384 166.205 228.575C164.675 228.717 163.495 228.684 162.703 228.718C161.91 228.736 161.501 228.745 161.501 228.745H161.498Z" fill="white"/>
<path d="M275.014 162C275.014 162 274.997 161.299 274.962 159.939C274.944 159.259 274.923 158.415 274.897 157.412C274.877 156.911 274.887 156.367 274.839 155.789C274.794 155.21 274.748 154.592 274.698 153.936C274.355 148.693 273.501 140.965 270.859 131.49C270.521 130.31 270.175 129.097 269.818 127.854C269.403 126.628 268.978 125.373 268.543 124.088C268.135 122.792 267.603 121.508 267.083 120.187C266.553 118.871 266.062 117.504 265.422 116.168C263.084 110.727 260.049 105.059 256.293 99.3406C252.536 93.6245 248.022 87.8711 242.677 82.3629C237.329 76.8635 231.173 71.575 224.163 66.9046C217.156 62.2395 209.339 58.148 200.85 54.9335C199.803 54.4924 198.708 54.1736 197.628 53.7944C196.543 53.4341 195.461 53.0462 194.359 52.7042C193.25 52.3893 192.136 52.0735 191.018 51.7562C190.459 51.5975 189.898 51.4384 189.337 51.2788C188.771 51.1361 188.199 51.0133 187.629 50.8788C186.487 50.6157 185.342 50.3516 184.191 50.0865C183.04 49.8278 181.867 49.657 180.698 49.4369C180.113 49.3329 179.527 49.228 178.939 49.1235L178.058 48.9658L177.167 48.8531C175.98 48.7022 174.788 48.5513 173.591 48.3995C172.398 48.2215 171.19 48.1571 169.981 48.0618C168.771 47.9743 167.559 47.8684 166.339 47.7953C165.116 47.7649 163.889 47.7339 162.659 47.7034C162.043 47.6879 161.426 47.6725 160.809 47.6575C160.201 47.6561 159.577 47.6841 158.961 47.6962C157.724 47.7276 156.484 47.7595 155.239 47.7915C153.996 47.8374 152.753 47.9675 151.504 48.0527C149.002 48.1871 146.511 48.5702 143.998 48.8788C139 49.6662 133.963 50.6442 129.012 52.133C126.509 52.7835 124.076 53.6981 121.6 54.5151C120.378 54.9688 119.17 55.467 117.95 55.9424L116.121 56.6655L114.325 57.4781C104.699 61.7243 95.5415 67.4496 87.2375 74.3943C86.2143 75.2809 85.1906 76.1689 84.1645 77.0584C83.1515 77.961 82.1907 78.9245 81.1985 79.8565C80.7081 80.3291 80.2081 80.792 79.7251 81.2723L78.3136 82.7543L76.9007 84.2377C76.4282 84.7311 75.9529 85.223 75.5143 85.7492C74.6188 86.7838 73.7223 87.8198 72.8244 88.8573C71.9351 89.9021 71.1179 91.0073 70.2591 92.0811C69.8365 92.6233 69.4047 93.1592 68.9898 93.7077L67.793 95.3923L66.5953 97.078C66.1939 97.639 65.7907 98.1991 65.4295 98.7882C64.6843 99.9505 63.9392 101.115 63.1926 102.279C62.46 103.453 61.8019 104.673 61.1017 105.869C60.7603 106.472 60.4034 107.066 60.0737 107.676L59.1254 109.53L58.1767 111.384L57.7019 112.312C57.5457 112.622 57.4122 112.944 57.2662 113.259C56.6941 114.526 56.1211 115.794 55.5486 117.063C54.994 118.34 54.5157 119.65 53.9945 120.943C53.7435 121.593 53.4742 122.237 53.2377 122.893L52.5675 124.876L51.8969 126.86L51.5618 127.852C51.4505 128.183 51.3669 128.523 51.2682 128.858L50.1237 132.893C49.9167 133.561 49.7925 134.251 49.6256 134.93L49.1547 136.976L48.6856 139.022L48.3176 141.09L47.9487 143.159C47.8321 143.849 47.6837 144.535 47.6116 145.233L47.0836 149.404C47.042 149.752 46.9884 150.099 46.9579 150.448L46.8786 151.496L46.72 153.591L46.5614 155.686C46.5004 156.384 46.5145 157.09 46.4869 157.791L46.3815 162.006L46.4874 166.207C46.515 166.908 46.5004 167.61 46.5619 168.309L46.7205 170.407L46.8791 172.504L46.9584 173.553C46.9888 173.901 47.043 174.248 47.0841 174.596L47.6126 178.768C47.6847 179.465 47.8326 180.151 47.9492 180.842L48.3181 182.91L48.6861 184.978L49.1551 187.025L49.6266 189.07C49.7929 189.749 49.9172 190.44 50.1247 191.108L51.2687 195.143C51.3674 195.478 51.451 195.817 51.5622 196.148L51.8973 197.14L52.5685 199.124L53.2382 201.108C53.4752 201.763 53.744 202.407 53.9955 203.058C54.5162 204.35 54.9945 205.66 55.5491 206.937C56.1216 208.206 56.6946 209.474 57.2667 210.741C57.4127 211.057 57.5462 211.378 57.7023 211.688L58.1767 212.616L59.1259 214.47L60.0742 216.324C60.4039 216.933 60.7608 217.529 61.1022 218.131C61.8024 219.327 62.4605 220.547 63.193 221.721C63.9396 222.885 64.6848 224.049 65.4299 225.212C65.7911 225.801 66.1939 226.361 66.5953 226.922L67.793 228.608L68.9898 230.293C69.4052 230.841 69.837 231.377 70.2596 231.92C71.1179 232.993 71.9356 234.099 72.8248 235.143C73.7228 236.18 74.6193 237.216 75.5143 238.251C75.9529 238.778 76.4282 239.269 76.9012 239.763L78.3141 241.246L79.7251 242.728C80.2086 243.208 80.7086 243.672 81.1985 244.144C82.1907 245.076 83.1515 246.039 84.1645 246.942C85.1906 247.831 86.2148 248.719 87.2375 249.606C95.5415 256.551 104.699 262.275 114.325 266.523L116.121 267.334L117.949 268.058C119.17 268.534 120.378 269.031 121.6 269.485C124.076 270.303 126.509 271.217 129.012 271.868C133.963 273.357 139 274.334 143.998 275.122C146.51 275.43 149.003 275.814 151.502 275.948C152.751 276.033 153.99 276.163 155.236 276.209C156.481 276.241 157.723 276.273 158.963 276.305C159.58 276.317 160.204 276.345 160.813 276.343C161.429 276.328 162.045 276.312 162.659 276.297C163.888 276.267 165.113 276.236 166.335 276.205C167.554 276.132 168.768 276.026 169.979 275.938C171.189 275.843 172.398 275.779 173.591 275.601C174.787 275.45 175.98 275.298 177.167 275.148L178.058 275.034L178.939 274.878C179.527 274.772 180.113 274.668 180.698 274.564C181.866 274.344 183.04 274.172 184.191 273.915C185.342 273.649 186.487 273.385 187.629 273.121C188.199 272.987 188.771 272.865 189.337 272.721C189.898 272.562 190.458 272.404 191.018 272.245C192.136 271.927 193.25 271.611 194.359 271.297C195.461 270.955 196.542 270.567 197.628 270.207C198.707 269.828 199.803 269.508 200.85 269.067C209.339 265.853 217.156 261.762 224.163 257.097C231.173 252.426 237.329 247.138 242.677 241.638C248.022 236.13 252.535 230.376 256.293 224.661C260.049 218.943 263.084 213.274 265.422 207.833C266.062 206.497 266.553 205.131 267.083 203.814C267.603 202.493 268.135 201.209 268.543 199.914C268.978 198.628 269.403 197.372 269.818 196.148C270.174 194.904 270.521 193.692 270.859 192.51C273.501 183.037 274.355 175.306 274.698 170.067C274.748 169.411 274.794 168.794 274.839 168.215C274.887 167.637 274.877 167.093 274.896 166.591C274.923 165.587 274.944 164.741 274.962 164.061C274.997 162.7 275.014 161.998 275.014 161.998V162ZM275.237 162.003C275.237 162.003 275.221 162.706 275.189 164.067C275.173 164.748 275.153 165.593 275.129 166.597C275.11 167.099 275.12 167.642 275.074 168.221C275.031 168.802 274.985 169.422 274.936 170.08C274.602 175.338 273.762 183.082 271.131 192.586C270.794 193.77 270.449 194.986 270.095 196.234C269.681 197.463 269.257 198.723 268.824 200.013C268.416 201.311 267.886 202.599 267.368 203.926C266.839 205.247 266.348 206.618 265.71 207.96C263.372 213.417 260.371 219.125 256.626 224.88C252.885 230.634 248.383 236.433 243.041 241.992C237.69 247.535 231.556 252.907 224.543 257.662C217.532 262.413 209.695 266.597 201.164 269.906C200.113 270.359 199.012 270.689 197.927 271.08C196.835 271.453 195.747 271.853 194.64 272.207C193.523 272.533 192.403 272.861 191.277 273.19C190.714 273.355 190.151 273.52 189.586 273.685C189.016 273.834 188.44 273.963 187.866 274.103C186.717 274.378 185.563 274.653 184.404 274.93C183.244 275.201 182.061 275.383 180.883 275.615C180.294 275.725 179.703 275.835 179.111 275.946L178.222 276.112L177.324 276.233C176.126 276.395 174.924 276.557 173.717 276.721C172.513 276.909 171.293 276.985 170.072 277.091C168.85 277.189 167.625 277.306 166.393 277.389C165.159 277.431 163.922 277.472 162.681 277.513C162.059 277.533 161.438 277.553 160.815 277.574C160.761 277.576 160.625 277.582 160.555 277.579L160.322 277.575L159.859 277.566L158.931 277.55C157.692 277.529 156.449 277.507 155.203 277.486C153.954 277.449 152.68 277.328 151.413 277.253C148.864 277.135 146.347 276.769 143.801 276.477C138.736 275.722 133.627 274.771 128.599 273.304C126.058 272.665 123.584 271.76 121.068 270.95C119.825 270.5 118.596 270.006 117.354 269.534L115.494 268.815L113.667 268.006C103.868 263.777 94.5231 258.041 86.0257 251.05C84.9798 250.156 83.9329 249.261 82.8836 248.364C81.8493 247.451 80.8667 246.476 79.8537 245.534C79.3527 245.056 78.8426 244.588 78.3494 244.101L76.906 242.602L75.4612 241.1C74.9781 240.6 74.4926 240.103 74.0439 239.57C73.1275 238.521 72.2098 237.472 71.2915 236.421C70.3824 235.362 69.544 234.243 68.6649 233.154C68.2326 232.605 67.7906 232.061 67.3656 231.505L66.1388 229.797L64.9116 228.087C64.5001 227.518 64.0871 226.949 63.7157 226.353C62.9522 225.172 62.1873 223.991 61.4218 222.809C60.6699 221.618 59.9929 220.379 59.2739 219.165C58.9233 218.553 58.5573 217.948 58.2183 217.329L57.243 215.446L56.2672 213.562L55.7798 212.618C55.6207 212.302 55.4833 211.975 55.3339 211.654C54.7483 210.364 54.1628 209.073 53.5767 207.781C53.01 206.481 52.5187 205.148 51.9858 203.831C51.7286 203.169 51.4534 202.513 51.2112 201.845L50.5241 199.827L49.8369 197.806L49.4936 196.795C49.38 196.458 49.2934 196.112 49.1924 195.77L48.0183 191.661C47.807 190.98 47.6774 190.277 47.5062 189.585L47.0217 187.502L46.5411 185.416L46.161 183.31L45.7814 181.201C45.661 180.498 45.5097 179.799 45.4347 179.088L44.8873 174.837C44.8453 174.483 44.7897 174.129 44.7582 173.774L44.6746 172.705L44.5087 170.568L44.3429 168.43C44.2805 167.717 44.2921 167.002 44.2626 166.288L44.1523 161.95L44.266 157.735C44.2945 157.028 44.2819 156.34 44.3448 155.618L44.5106 153.462L44.6775 151.306L44.7616 150.229C44.7935 149.871 44.8487 149.519 44.8912 149.163L45.4381 144.913C45.513 144.202 45.6649 143.503 45.7848 142.8L46.1649 140.692L46.5449 138.585L47.0256 136.5L47.5096 134.416C47.6813 133.724 47.8099 133.021 48.0222 132.341L49.1953 128.231C49.2973 127.89 49.3834 127.544 49.497 127.206L49.8408 126.196L50.527 124.175L51.2146 122.156C51.4568 121.488 51.732 120.832 51.9887 120.171C52.5216 118.854 53.0129 117.521 53.5796 116.221C54.1662 114.929 54.7532 113.639 55.3388 112.349C55.4891 112.028 55.6269 111.702 55.7875 111.386L56.2754 110.443L57.2512 108.559L58.226 106.677C58.5655 106.057 58.931 105.452 59.2816 104.841C60.0006 103.626 60.6776 102.387 61.4295 101.197C62.195 100.014 62.9595 98.8332 63.7235 97.653C64.0949 97.0562 64.5073 96.4874 64.9183 95.9181L66.1461 94.2083L67.3723 92.5009C67.7974 91.9446 68.2393 91.4015 68.6716 90.8515C69.5507 89.7628 70.3887 88.6431 71.2983 87.5848C72.2165 86.5342 73.1338 85.4846 74.0497 84.4365C74.4984 83.9035 74.9844 83.4058 75.4674 82.9061L76.9118 81.4043L78.3547 79.9054C78.8484 79.4188 79.359 78.9501 79.86 78.4727C80.873 77.5296 81.8546 76.5554 82.8894 75.6432C83.9397 74.7474 84.988 73.8531 86.0344 72.9602C94.5304 65.9696 103.874 60.2341 113.672 56.0053L115.499 55.1966L117.359 54.4774C118.6 54.0053 119.829 53.5105 121.072 53.0612C123.588 52.2515 126.061 51.3465 128.602 50.7066C133.63 49.2401 138.738 48.2892 143.802 47.5337C146.347 47.2415 148.87 46.8754 151.402 46.7588C152.665 46.6834 153.923 46.5624 155.18 46.5257C156.438 46.5034 157.693 46.4817 158.942 46.4594C159.579 46.4526 160.167 46.4289 160.84 46.4357C161.457 46.4565 162.073 46.4768 162.689 46.4971C163.919 46.5378 165.146 46.5784 166.369 46.619C167.601 46.7027 168.835 46.8192 170.062 46.9174C171.288 47.0243 172.515 47.1003 173.717 47.2889C174.923 47.4519 176.126 47.6144 177.324 47.776L178.221 47.8974L179.11 48.0638C179.702 48.174 180.293 48.2843 180.883 48.3941C182.06 48.6258 183.243 48.8082 184.403 49.0785C185.561 49.3552 186.715 49.6309 187.864 49.9056C188.439 50.0459 189.014 50.1741 189.584 50.323C190.149 50.4885 190.713 50.6534 191.275 50.8179C192.401 51.1472 193.521 51.4747 194.638 51.8017C195.745 52.1547 196.834 52.5547 197.925 52.9267C199.01 53.318 200.111 53.6483 201.163 54.1015C209.692 57.4104 217.529 61.5938 224.539 66.3435C225.424 66.9254 226.258 67.5701 227.113 68.1752C227.958 68.7933 228.813 69.3892 229.637 70.0165C230.447 70.6627 231.252 71.306 232.052 71.9455C232.845 72.5926 233.666 73.1977 234.411 73.884C237.475 76.5327 240.384 79.2157 243.04 82.0104C248.381 87.5698 252.883 93.3681 256.625 99.1225C260.37 104.877 263.37 110.585 265.709 116.042C266.348 117.383 266.839 118.754 267.367 120.075C267.885 121.401 268.416 122.689 268.823 123.989C269.257 125.278 269.681 126.538 270.095 127.767C270.449 129.014 270.794 130.231 271.131 131.415C273.762 140.919 274.602 148.665 274.936 153.919C274.984 154.577 275.031 155.196 275.074 155.776C275.12 156.356 275.11 156.9 275.129 157.402C275.153 158.408 275.173 159.254 275.189 159.935C275.221 161.298 275.237 162 275.237 162V162.003Z" fill="white"/>
<path d="M161.499 287.787C161.499 287.787 162.271 287.767 163.765 287.729C164.512 287.71 165.441 287.687 166.543 287.659C167.095 287.636 167.691 287.647 168.327 287.595C168.964 287.546 169.643 287.495 170.364 287.439C176.127 287.063 184.622 286.123 195.037 283.218C196.335 282.847 197.667 282.465 199.034 282.074C200.381 281.617 201.761 281.15 203.175 280.671C204.598 280.223 206.009 279.638 207.461 279.067C208.909 278.483 210.411 277.943 211.88 277.239C217.86 274.667 224.091 271.33 230.378 267.199C236.66 263.066 242.985 258.103 249.04 252.224C255.085 246.343 260.899 239.572 266.033 231.863C271.162 224.157 275.659 215.559 279.193 206.222L279.537 205.351C279.648 205.058 279.74 204.759 279.843 204.463C280.043 203.869 280.245 203.275 280.446 202.679C280.842 201.485 281.268 200.295 281.644 199.084C281.99 197.863 282.337 196.638 282.686 195.408C282.861 194.793 283.035 194.177 283.211 193.56C283.368 192.938 283.503 192.308 283.651 191.681C283.94 190.426 284.23 189.165 284.522 187.901C284.683 187.271 284.771 186.626 284.892 185.986C285.007 185.345 285.121 184.703 285.236 184.058C285.35 183.414 285.465 182.77 285.58 182.124L285.754 181.155L285.878 180.175C286.043 178.869 286.21 177.558 286.377 176.242C286.572 174.929 286.643 173.6 286.748 172.271C286.843 170.94 286.961 169.607 287.041 168.266C287.074 166.921 287.108 165.571 287.142 164.217C287.159 163.541 287.176 162.862 287.193 162.183C287.194 161.513 287.164 160.829 287.15 160.15C287.115 158.79 287.08 157.425 287.046 156.057C286.995 154.69 286.852 153.323 286.759 151.949C286.61 149.197 286.19 146.457 285.851 143.693C284.985 138.196 283.91 132.656 282.274 127.21C281.559 124.458 280.554 121.782 279.655 119.058C279.157 117.714 278.609 116.385 278.087 115.043L277.291 113.032L276.398 111.057C271.73 100.469 265.438 90.3971 257.804 81.2628C256.829 80.1382 255.853 79.0117 254.875 77.8833C253.883 76.7689 252.824 75.7121 251.799 74.6209C251.28 74.0816 250.771 73.5316 250.243 73.0006L248.614 71.4479L246.983 69.8939C246.441 69.3739 245.9 68.8511 245.322 68.3688C244.184 67.3836 243.045 66.3974 241.905 65.4102C241.346 64.9028 240.731 64.4626 240.143 63.9886L238.361 62.5884C237.765 62.1236 237.176 61.6486 236.573 61.192L234.721 59.8759L232.868 58.5584C232.252 58.1168 231.636 57.6737 230.989 57.2761C229.71 56.4568 228.431 55.6369 227.15 54.8161C226.519 54.39 225.839 54.0437 225.186 53.6548L223.205 52.5163C222.543 52.1404 221.888 51.7481 221.218 51.3854L219.181 50.3421L217.142 49.2988L216.122 48.7764C215.781 48.6047 215.427 48.4577 215.081 48.2971C213.687 47.6678 212.294 47.0376 210.899 46.4073C209.495 45.7979 208.055 45.2717 206.633 44.6985C205.919 44.4223 205.211 44.1258 204.49 43.8661L202.31 43.129L200.13 42.3914L199.038 42.0223C198.675 41.9 198.301 41.808 197.933 41.6992L193.498 40.4407C192.763 40.2129 192.005 40.076 191.258 39.8927L189.009 39.3747L186.76 38.8586L184.486 38.4533L182.213 38.0479C181.453 37.9197 180.7 37.7563 179.932 37.6774L175.346 37.096C174.964 37.0506 174.583 36.9911 174.199 36.9577L173.048 36.8706L170.744 36.6961L168.44 36.5214C167.673 36.4547 166.897 36.4697 166.127 36.4397L161.494 36.3236L156.875 36.4402C156.105 36.4697 155.333 36.4552 154.565 36.5219L152.259 36.6965L149.953 36.8711L148.8 36.9587C148.417 36.992 148.036 37.051 147.653 37.0965L143.067 37.6779C142.3 37.7572 141.546 37.9202 140.788 38.0484L138.513 38.4537L136.24 38.8591L133.99 39.3747L131.741 39.8932C130.995 40.0765 130.236 40.2134 129.502 40.4412L125.066 41.6997C124.698 41.8085 124.325 41.9004 123.961 42.0228L122.87 42.3919L120.689 43.1295L118.51 43.8661C117.788 44.1263 117.081 44.4228 116.366 44.699C114.944 45.2717 113.505 45.7984 112.101 46.4079C110.706 47.0381 109.312 47.6683 107.919 48.2976C107.572 48.4581 107.219 48.6052 106.878 48.7769L105.858 49.2988L103.819 50.3426L101.782 51.3854C101.112 51.7481 100.458 52.1404 99.7948 52.5163L97.8142 53.6548C97.1599 54.0442 96.4805 54.3905 95.8495 54.8161C94.5691 55.6369 93.2896 56.4573 92.0111 57.2761C91.3641 57.6737 90.748 58.1172 90.131 58.5584L88.2781 59.8759L86.4266 61.1925C85.8241 61.6491 85.2346 62.1241 84.6384 62.5884L82.8561 63.9886C82.2685 64.4626 81.6535 64.9033 81.095 65.4102C79.9543 66.3978 78.8155 67.3841 77.6777 68.3688C77.0994 68.8511 76.5588 69.3739 76.0163 69.8939L74.3857 71.4484L72.7571 73.0006C72.2286 73.5316 71.7199 74.0816 71.2011 74.6214C70.176 75.7121 69.117 76.7689 68.1243 77.8838C67.147 79.0117 66.1712 80.1382 65.1964 81.2628C57.5621 90.3971 51.2692 100.469 46.6015 111.057L45.7084 113.032L44.913 115.043C44.3907 116.385 43.8429 117.714 43.3448 119.058C42.4464 121.781 41.4406 124.458 40.7254 127.21C39.0896 132.656 38.0151 138.196 37.1486 143.693C36.8101 146.457 36.389 149.198 36.241 151.947C36.1477 153.32 36.0055 154.684 35.9542 156.053C35.919 157.423 35.8841 158.79 35.8493 160.152C35.8363 160.831 35.8053 161.517 35.8068 162.187C35.8237 162.865 35.8406 163.542 35.8575 164.219C35.8909 165.57 35.9252 166.918 35.9586 168.261C36.0389 169.603 36.1554 170.937 36.2516 172.268C36.3566 173.599 36.4272 174.929 36.623 176.242C36.7898 177.557 36.9562 178.868 37.1215 180.175L37.2458 181.154L37.4189 182.124C37.534 182.77 37.6486 183.415 37.7637 184.058C37.8783 184.702 37.9929 185.344 38.107 185.986C38.2284 186.625 38.3169 187.271 38.4779 187.901C38.769 189.165 39.0596 190.426 39.3492 191.681C39.4962 192.308 39.6312 192.937 39.7888 193.559C39.9638 194.176 40.1384 194.793 40.3125 195.407C40.6621 196.638 41.0093 197.863 41.3555 199.084C41.7312 200.294 42.1572 201.485 42.5537 202.679C42.7549 203.274 42.956 203.869 43.1567 204.463C43.2592 204.758 43.3516 205.058 43.4633 205.35L43.8061 206.222C47.3399 215.558 51.8374 224.156 56.9654 231.863C62.1002 239.572 67.9139 246.342 73.9588 252.223C80.0138 258.103 86.3381 263.066 92.6213 267.198C98.907 271.33 105.138 274.667 111.119 277.239C112.588 277.942 114.089 278.483 115.537 279.066C116.989 279.637 118.4 280.223 119.824 280.671C121.237 281.15 122.617 281.617 123.964 282.074C125.331 282.465 126.664 282.847 127.962 283.218C138.376 286.123 146.874 287.063 152.633 287.439C153.354 287.494 154.032 287.546 154.669 287.595C155.305 287.647 155.902 287.636 156.454 287.659C157.558 287.687 158.486 287.71 159.235 287.729C160.73 287.767 161.502 287.787 161.502 287.787H161.499ZM161.497 288.011C161.497 288.011 160.724 287.992 159.228 287.957C158.48 287.939 157.552 287.916 156.448 287.89C155.896 287.869 155.299 287.881 154.662 287.829C154.024 287.782 153.343 287.731 152.62 287.677C146.842 287.31 138.331 286.384 127.887 283.491C126.585 283.12 125.248 282.74 123.878 282.35C122.527 281.895 121.143 281.429 119.726 280.952C118.298 280.505 116.882 279.921 115.425 279.35C113.973 278.769 112.467 278.229 110.993 277.526C104.995 274.956 98.7251 271.652 92.4023 267.533C86.0804 263.416 79.7111 258.464 73.6043 252.589C70.5362 249.667 67.5856 246.469 64.6785 243.1C63.9246 242.28 63.2602 241.377 62.5494 240.505C61.8478 239.624 61.1418 238.739 60.432 237.848C59.7434 236.942 59.0896 236.002 58.4112 235.072C57.7468 234.133 57.0389 233.214 56.4001 232.242C51.1865 224.532 46.5962 215.914 42.9676 206.537L42.6151 205.662C42.501 205.368 42.4062 205.067 42.2999 204.77C42.0939 204.174 41.8869 203.576 41.6795 202.978C41.2713 201.777 40.8333 200.581 40.4454 199.364C40.0876 198.137 39.7283 196.905 39.3676 195.668C39.1872 195.049 39.0064 194.429 38.8256 193.808C38.6621 193.183 38.5219 192.549 38.3676 191.919C38.0669 190.655 37.7651 189.386 37.4615 188.113C37.2951 187.48 37.2003 186.83 37.0737 186.185C36.9537 185.539 36.8333 184.892 36.7129 184.244C36.5925 183.595 36.4716 182.947 36.3512 182.295L36.1694 181.318L36.0365 180.332C35.8595 179.015 35.6825 177.694 35.5041 176.368C35.2976 175.045 35.2154 173.704 35.0993 172.362C34.993 171.019 34.8653 169.672 34.7744 168.319C34.7304 166.964 34.6864 165.603 34.6419 164.239C34.6201 163.557 34.5979 162.874 34.5761 162.189C34.5742 162.128 34.5679 161.985 34.5713 161.906L34.5761 161.651L34.5853 161.141L34.6037 160.12C34.6284 158.758 34.653 157.392 34.6782 156.021C34.6733 155.339 34.757 154.638 34.7932 153.946C34.8411 153.251 34.889 152.555 34.9369 151.858C35.0684 149.059 35.4717 146.293 35.7942 143.495C36.6278 137.932 37.6747 132.32 39.2893 126.797C39.9938 124.006 40.9894 121.29 41.8797 118.526C42.3748 117.161 42.9188 115.811 43.4376 114.448L44.2287 112.405L45.118 110.398C49.7683 99.6383 56.0713 89.378 63.752 80.0512C64.7346 78.9034 65.7181 77.7532 66.7036 76.602C67.7055 75.4664 68.7751 74.3882 69.8109 73.2758C70.335 72.7258 70.85 72.1657 71.3839 71.6235L73.0303 70.04L74.6792 68.454C75.2281 67.9234 75.7745 67.3899 76.3596 66.8975C77.5109 65.8919 78.6632 64.8849 79.8169 63.8769C80.3832 63.3594 81.0045 62.9086 81.5993 62.4244L83.4039 60.9937C84.0074 60.5192 84.6036 60.0341 85.2148 59.5673L87.0895 58.2207L88.9671 56.8742C89.5919 56.4224 90.2157 55.9692 90.8714 55.562C92.1668 54.7238 93.4641 53.8846 94.7615 53.0444C95.4017 52.6086 96.0903 52.2531 96.7532 51.8541L98.7619 50.6879C99.434 50.3024 100.097 49.901 100.778 49.529L102.844 48.4586L104.913 47.3883L105.948 46.8538C106.296 46.6787 106.654 46.5283 107.006 46.3643C108.422 45.722 109.839 45.0787 111.257 44.4354C112.683 43.8124 114.147 43.2741 115.592 42.6893C116.319 42.4068 117.038 42.1045 117.771 41.8385L119.987 41.0845L122.205 40.3304L123.314 39.9536C123.684 39.8288 124.064 39.734 124.439 39.6228L128.949 38.3348C129.696 38.1021 130.467 37.9604 131.227 37.7732L133.514 37.2411L135.802 36.7134L138.115 36.2965L140.427 35.8801C141.2 35.748 141.967 35.5817 142.747 35.4989L147.412 34.8996C147.801 34.8527 148.189 34.7923 148.58 34.7575L149.752 34.666L152.097 34.4837L154.444 34.3023C155.225 34.2336 156.011 34.2472 156.795 34.2153L161.55 34.0943L166.183 34.2181C166.96 34.2496 167.717 34.2356 168.508 34.3042L170.873 34.4856L173.237 34.6689L174.418 34.7608C174.811 34.7956 175.197 34.8561 175.587 34.903L180.252 35.5028C181.032 35.5855 181.799 35.7519 182.571 35.8834L184.884 36.2999L187.196 36.7168L189.485 37.245L191.772 37.7761C192.531 37.9643 193.302 38.1055 194.05 38.3381L198.56 39.6262C198.935 39.7374 199.314 39.8322 199.684 39.957L200.794 40.3338L203.011 41.0879L205.227 41.8419C205.96 42.1079 206.68 42.4097 207.406 42.6922C208.851 43.277 210.315 43.8158 211.742 44.4383C213.159 45.0821 214.576 45.7258 215.991 46.3691C216.343 46.5341 216.701 46.6855 217.048 46.8615L218.082 47.3969L220.151 48.4674L222.217 49.5372C222.897 49.9092 223.561 50.3106 224.233 50.6957L226.241 51.8623C226.904 52.2608 227.593 52.6168 228.233 53.0521C229.53 53.8923 230.828 54.7315 232.123 55.5697C232.779 55.977 233.403 56.4297 234.028 56.8814L235.905 58.2285L237.78 59.5746C238.39 60.0413 238.987 60.5265 239.591 61.0014L241.395 62.4317C241.99 62.9158 242.611 63.3661 243.177 63.8837C244.331 64.8917 245.483 65.8987 246.634 66.9043C247.219 67.3962 247.765 67.9301 248.315 68.4603L249.964 70.0458L251.61 71.6298C252.144 72.1715 252.658 72.7321 253.182 73.2816C254.218 74.394 255.289 75.4717 256.29 76.6083C257.274 77.76 258.256 78.9106 259.237 80.0599C266.917 89.3857 273.221 99.6445 277.871 110.404L278.761 112.41L279.551 114.452C280.07 115.815 280.614 117.166 281.109 118.53C282 121.294 282.995 124.01 283.699 126.801C285.314 132.323 286.361 137.935 287.195 143.497C287.518 146.294 287.922 149.065 288.052 151.847C288.136 153.235 288.27 154.617 288.311 155.999C288.336 157.38 288.361 158.758 288.386 160.133C288.394 160.831 288.421 161.48 288.414 162.214C288.392 162.893 288.37 163.572 288.348 164.247C288.304 165.602 288.26 166.951 288.217 168.296C288.126 169.649 287.999 171.004 287.891 172.351C287.776 173.699 287.693 175.046 287.487 176.367C287.308 177.693 287.131 179.014 286.955 180.331L286.821 181.317L286.64 182.295C286.519 182.946 286.399 183.594 286.278 184.243C286.158 184.891 286.037 185.538 285.917 186.184C285.791 186.829 285.697 187.478 285.53 188.112C285.227 189.385 284.925 190.654 284.624 191.918C284.47 192.548 284.33 193.181 284.166 193.807C283.985 194.428 283.804 195.047 283.624 195.666C283.264 196.903 282.904 198.135 282.547 199.362C282.159 200.58 281.721 201.776 281.313 202.975C281.106 203.574 280.898 204.172 280.692 204.768C280.586 205.065 280.492 205.366 280.377 205.659L280.025 206.535C276.397 215.912 271.808 224.529 266.594 232.239C265.955 233.212 265.247 234.13 264.583 235.07C263.905 235.999 263.251 236.94 262.563 237.846C261.853 238.736 261.147 239.621 260.446 240.502C259.735 241.374 259.07 242.277 258.317 243.097C255.409 246.467 252.462 249.666 249.392 252.587C243.286 258.463 236.917 263.415 230.595 267.531C224.273 271.651 218.003 274.954 212.006 277.526C210.532 278.229 209.025 278.768 207.573 279.35C206.116 279.92 204.701 280.504 203.273 280.951C201.856 281.429 200.472 281.895 199.121 282.35C197.75 282.74 196.414 283.12 195.111 283.49C184.669 286.384 176.155 287.31 170.381 287.677C169.658 287.731 168.977 287.782 168.34 287.829C167.702 287.881 167.105 287.869 166.553 287.89C165.448 287.916 164.518 287.939 163.769 287.957C162.272 287.992 161.499 288.011 161.499 288.011H161.497Z" fill="white"/>
<path d="M161.5 0.52496L177.568 137.146L161.5 162V0.52496Z" fill="white"/>
<path d="M161.724 4.33281V161.243L177.338 137.092L161.724 4.33281ZM161.277 162.756V0.524821L161.722 0.498701L177.801 137.2L177.757 137.267L161.277 162.756Z" fill="white"/>
<path d="M161.5 0.52496L145.432 137.146L161.5 162V0.52496Z" fill="#070707"/>
<path d="M161.5 0.52496L145.432 137.146L161.5 162V0.52496Z" fill="#070707"/>
<path d="M145.661 137.092L161.276 161.243V4.33281L145.661 137.092ZM161.722 162.756L145.199 137.2L161.277 0.498701L161.722 0.524821V162.756Z" fill="white"/>
<path d="M0.0664062 162L136.651 178.072L161.498 162H0.0664062Z" fill="white"/>
<path d="M3.87459 162.223L136.598 177.842L160.742 162.223H3.87459ZM136.705 178.304L136.625 178.295L0.0410156 162.222L0.0671291 161.777H162.255L136.705 178.304Z" fill="white"/>
<path d="M0.0664062 162L136.651 145.927L161.498 162H0.0664062Z" fill="#070707"/>
<path d="M0.0664062 162L136.651 145.927L161.498 162H0.0664062Z" fill="#070707"/>
<path d="M3.87411 161.777H160.742L136.598 146.158L3.87411 161.777ZM162.255 162.223H0.0671291L0.0410156 161.778L136.705 145.696L136.772 145.739L162.255 162.223Z" fill="white"/>
<path d="M161.5 323.476L145.432 186.854L161.5 162.001V323.476Z" fill="white"/>
<path d="M145.663 186.908L161.278 319.667V162.757L145.663 186.908ZM161.279 323.501L145.201 186.8L145.245 186.733L161.724 161.244V323.475L161.279 323.501Z" fill="white"/>
<path d="M161.5 323.476L177.568 186.854L161.5 162.001V323.476Z" fill="#070707"/>
<path d="M161.5 323.476L177.568 186.854L161.5 162.001V323.476Z" fill="#070707"/>
<path d="M161.724 162.757V319.667L177.338 186.908L161.724 162.757ZM161.722 323.501L161.277 323.475V161.244L177.801 186.8L177.791 186.88L161.722 323.501Z" fill="white"/>
<path d="M322.931 162L186.347 145.927L161.5 162H322.931Z" fill="white"/>
<path d="M162.257 161.777H319.124L186.401 146.159L162.257 161.777ZM322.931 162.224H160.744L186.294 145.696L322.957 161.779L322.931 162.224Z" fill="white"/>
<path d="M322.931 162L186.347 178.073L161.5 162H322.931Z" fill="#070707"/>
<path d="M322.931 162L186.347 178.073L161.5 162H322.931Z" fill="#070707"/>
<path d="M162.257 162.224L186.401 177.842L319.124 162.224H162.257ZM186.294 178.305L186.226 178.261L160.744 161.777H322.931L322.957 162.222L186.294 178.305Z" fill="white"/>
<path d="M102.58 104.107L145.43 137.146L161.5 162L102.58 104.107Z" fill="#070707"/>
<path d="M102.58 104.107L145.43 137.146L161.5 162L102.58 104.107Z" fill="#070707"/>
<path d="M105.392 106.557L160.216 160.426L145.263 137.299L105.392 106.557ZM162.783 163.574L102.424 104.266L102.716 103.93L145.597 136.992L145.617 137.025L162.783 163.574Z" fill="white"/>
<path d="M102.58 104.107L136.652 145.927L161.499 162L102.58 104.107Z" fill="white"/>
<path d="M136.804 145.758L159.776 160.619L105.303 107.094L136.804 145.758ZM163.224 163.38L136.48 146.068L102.408 104.248L102.738 103.948L163.224 163.38Z" fill="white"/>
<path d="M102.58 219.892L145.43 186.853L161.5 161.999L102.58 219.892Z" fill="#070707"/>
<path d="M102.58 219.892L145.43 186.853L161.5 161.999L102.58 219.892Z" fill="#070707"/>
<path d="M160.216 163.574L105.392 217.443L145.263 186.7L160.216 163.574ZM102.716 220.07L102.424 219.733L162.783 160.426L145.566 187.031L102.716 220.07Z" fill="white"/>
<path d="M102.58 219.892L136.652 178.072L161.499 162L102.58 219.892Z" fill="white"/>
<path d="M136.804 178.241L105.303 216.905L159.776 163.38L136.804 178.241ZM102.738 220.052L102.408 219.751L136.502 177.904L163.224 160.619L102.738 220.052Z" fill="white"/>
<path d="M219.377 103.065L186.347 145.927L161.5 162L219.377 103.065Z" fill="#070707"/>
<path d="M219.377 103.065L186.347 145.927L161.5 162L219.377 103.065Z" fill="#070707"/>
<path d="M216.928 105.878L163.073 160.716L186.193 145.76L216.928 105.878ZM159.926 163.284L219.218 102.909L219.554 103.201L186.5 146.093L186.468 146.114L159.926 163.284Z" fill="white"/>
<path d="M219.377 103.065L177.568 137.146L161.5 162L219.377 103.065Z" fill="white"/>
<path d="M177.737 137.297L162.881 160.276L216.391 105.788L177.737 137.297ZM160.119 163.725L177.428 136.973L219.236 102.892L219.536 103.222L160.119 163.725Z" fill="white"/>
<path d="M219.377 220.935L186.347 178.072L161.5 162L219.377 220.935Z" fill="#070707"/>
<path d="M219.377 220.935L186.347 178.072L161.5 162L219.377 220.935Z" fill="#070707"/>
<path d="M163.073 163.284L216.928 218.122L186.193 178.24L163.073 163.284ZM219.218 221.091L159.926 160.716L186.524 177.936L219.554 220.798L219.218 221.091Z" fill="white"/>
<path d="M219.377 220.935L177.568 186.854L161.5 162L219.377 220.935Z" fill="white"/>
<path d="M177.737 186.703L216.391 218.212L162.881 163.725L177.737 186.703ZM219.236 221.107L177.4 187.005L160.119 160.276L219.536 220.778L219.236 221.107Z" fill="white"/>
</g>
<path d="M445.624 56.864V72.352H395.704V93.856H440.888V108.704H395.704V132.512H445.368V148H378.424V56.864H445.624ZM538.883 148H520.579L513.411 127.904H473.475L466.435 148H448.643L483.331 56.864H503.555L538.883 148ZM482.179 103.328L478.723 113.184H508.163L504.579 103.328C501.592 95.7333 497.838 85.3227 493.315 72.096C489.731 82.6773 486.019 93.088 482.179 103.328ZM578.237 150.048C565.864 150.048 556.264 147.275 549.437 141.728C542.696 136.181 539.282 128.245 539.197 117.92H556.221C556.306 124.405 558.226 129.056 561.981 131.872C565.821 134.688 571.41 136.096 578.749 136.096C584.722 136.096 589.288 134.987 592.445 132.768C595.602 130.464 597.181 127.179 597.181 122.912C597.181 119.328 595.816 116.597 593.085 114.72C590.44 112.843 585.576 111.179 578.493 109.728L570.813 108.192C551.272 104.523 541.501 95.3067 541.501 80.544C541.501 72.6933 544.488 66.464 550.461 61.856C556.434 57.1627 564.712 54.816 575.293 54.816C587.325 54.816 596.413 57.376 602.557 62.496C608.786 67.616 612.072 74.784 612.413 84H595.645C595.304 78.7947 593.554 74.9547 590.397 72.48C587.325 70.0053 582.376 68.768 575.549 68.768C570.258 68.768 566.205 69.7493 563.389 71.712C560.573 73.6747 559.165 76.448 559.165 80.032C559.165 83.7013 560.445 86.5173 563.005 88.48C565.65 90.4427 570.301 92.1067 576.957 93.472L584.893 95.008C595.56 97.1413 603.24 100.341 607.933 104.608C612.712 108.789 615.101 114.592 615.101 122.016C615.101 130.891 611.858 137.803 605.373 142.752C598.888 147.616 589.842 150.048 578.237 150.048ZM614.923 56.864H690.699V72.352H661.515V148H644.107V72.352H614.923V56.864ZM716.704 56.864V132.512H760.096V148H699.424V56.864H716.704ZM786.829 148H769.549V56.864H786.829V148ZM862.087 80.672V56.864H878.727V148H859.527L834.183 107.424C827.271 96.5867 821.852 87.456 817.927 80.032C818.268 89.5893 818.439 104.309 818.439 124.192V148H801.799V56.864H820.999L846.471 97.44C854.066 109.728 859.442 118.859 862.599 124.832C862.258 112.117 862.087 97.3973 862.087 80.672ZM960.874 56.864V72.352H910.954V93.856H956.138V108.704H910.954V132.512H960.618V148H893.674V56.864H960.874ZM418.744 275.048C405.603 275.048 394.979 270.739 386.872 262.12C378.68 253.501 374.584 241.939 374.584 227.432C374.584 212.84 378.637 201.235 386.744 192.616C394.765 184.083 405.432 179.816 418.744 179.816C429.411 179.816 438.499 182.675 446.008 188.392C453.517 194.109 458.211 202.387 460.088 213.224H442.552C441.016 207.251 438.157 202.728 433.976 199.656C429.88 196.499 424.803 194.92 418.744 194.92C410.637 194.92 404.237 197.821 399.544 203.624C394.936 209.341 392.632 217.277 392.632 227.432C392.632 237.672 394.936 245.651 399.544 251.368C404.152 257.085 410.552 259.944 418.744 259.944C425.059 259.944 430.477 258.067 435 254.312C439.523 250.557 442.253 245.352 443.192 238.696H460.472C459.363 250.301 454.84 259.261 446.904 265.576C439.053 271.891 429.667 275.048 418.744 275.048ZM545.926 261.992C537.563 270.696 526.555 275.048 512.902 275.048C499.249 275.048 488.241 270.696 479.878 261.992C471.515 253.203 467.334 241.683 467.334 227.432C467.334 213.181 471.515 201.661 479.878 192.872C488.241 184.168 499.249 179.816 512.902 179.816C526.555 179.816 537.563 184.168 545.926 192.872C554.203 201.491 558.342 213.011 558.342 227.432C558.342 241.853 554.203 253.373 545.926 261.992ZM485.382 227.432C485.382 237.416 487.899 245.309 492.934 251.112C497.969 256.915 504.625 259.816 512.902 259.816C521.265 259.816 527.963 256.915 532.998 251.112C537.947 245.395 540.422 237.501 540.422 227.432C540.422 217.363 537.947 209.469 532.998 203.752C527.963 197.949 521.265 195.048 512.902 195.048C504.625 195.048 497.969 197.949 492.934 203.752C487.899 209.555 485.382 217.448 485.382 227.432ZM629.712 205.672V181.864H646.352V273H627.152L601.808 232.424C594.896 221.587 589.477 212.456 585.552 205.032C585.893 214.589 586.064 229.309 586.064 249.192V273H569.424V181.864H588.624L614.096 222.44C621.691 234.728 627.067 243.859 630.224 249.832C629.883 237.117 629.712 222.397 629.712 205.672ZM695.987 275.048C683.614 275.048 674.014 272.275 667.187 266.728C660.446 261.181 657.032 253.245 656.947 242.92H673.971C674.056 249.405 675.976 254.056 679.731 256.872C683.571 259.688 689.16 261.096 696.499 261.096C702.472 261.096 707.038 259.987 710.195 257.768C713.352 255.464 714.931 252.179 714.931 247.912C714.931 244.328 713.566 241.597 710.835 239.72C708.19 237.843 703.326 236.179 696.243 234.728L688.563 233.192C669.022 229.523 659.251 220.307 659.251 205.544C659.251 197.693 662.238 191.464 668.211 186.856C674.184 182.163 682.462 179.816 693.043 179.816C705.075 179.816 714.163 182.376 720.307 187.496C726.536 192.616 729.822 199.784 730.163 209H713.395C713.054 203.795 711.304 199.955 708.147 197.48C705.075 195.005 700.126 193.768 693.299 193.768C688.008 193.768 683.955 194.749 681.139 196.712C678.323 198.675 676.915 201.448 676.915 205.032C676.915 208.701 678.195 211.517 680.755 213.48C683.4 215.443 688.051 217.107 694.707 218.472L702.643 220.008C713.31 222.141 720.99 225.341 725.683 229.608C730.462 233.789 732.851 239.592 732.851 247.016C732.851 255.891 729.608 262.803 723.123 267.752C716.638 272.616 707.592 275.048 695.987 275.048ZM779.663 274.92C767.802 274.92 758.458 271.763 751.631 265.448C744.89 259.048 741.519 250.131 741.519 238.696V181.864H758.799V238.824C758.799 245.736 760.591 250.984 764.175 254.568C767.759 258.152 772.922 259.944 779.663 259.944C786.404 259.944 791.567 258.152 795.151 254.568C798.735 250.984 800.527 245.736 800.527 238.824V181.864H817.807V238.696C817.807 250.301 814.436 259.261 807.695 265.576C800.954 271.805 791.61 274.92 779.663 274.92ZM848.704 181.864V257.512H892.096V273H831.424V181.864H848.704ZM879.673 181.864H955.449V197.352H926.265V273H908.857V197.352H879.673V181.864ZM981.454 273H964.174V181.864H981.454V273ZM1056.71 205.672V181.864H1073.35V273H1054.15L1028.81 232.424C1021.9 221.587 1016.48 212.456 1012.55 205.032C1012.89 214.589 1013.06 229.309 1013.06 249.192V273H996.424V181.864H1015.62L1041.1 222.44C1048.69 234.728 1054.07 243.859 1057.22 249.832C1056.88 237.117 1056.71 222.397 1056.71 205.672ZM1131.95 237.8V223.848H1172.65V273H1160.11L1157.68 260.968C1151.1 270.355 1141.21 275.048 1127.98 275.048C1114.84 275.048 1104.3 270.696 1096.36 261.992C1088.43 253.288 1084.46 241.768 1084.46 227.432C1084.46 213.096 1088.51 201.533 1096.62 192.744C1104.73 184.125 1115.69 179.816 1129.52 179.816C1140.95 179.816 1150.46 182.717 1158.06 188.52C1165.57 194.323 1170.09 202.216 1171.63 212.2H1153.84C1152.56 206.824 1149.74 202.6 1145.39 199.528C1141.12 196.456 1135.87 194.92 1129.64 194.92C1121.28 194.92 1114.67 197.821 1109.8 203.624C1104.94 209.427 1102.51 217.363 1102.51 227.432C1102.51 237.501 1104.98 245.437 1109.93 251.24C1114.88 257.043 1121.66 259.944 1130.28 259.944C1137.11 259.944 1142.96 257.896 1147.82 253.8C1152.68 249.704 1155.33 244.371 1155.76 237.8H1131.95Z" fill="white"/>
<defs>
<clipPath id="clip0_54_238">
<rect width="323" height="324" fill="white"/>
</clipPath>
</defs>
</svg>
